<svg id="bi:briefcase" xmlns="http://www.w3.org/2000/svg" width="20" height="16.25" viewBox="0 0 20 16.25">
  <g id="Group">
    <path id="Vector" d="M8.125,0A1.875,1.875,0,0,0,6.25,1.875V2.5H1.875A1.875,1.875,0,0,0,0,4.375v10A1.875,1.875,0,0,0,1.875,16.25h16.25A1.875,1.875,0,0,0,20,14.375v-10A1.875,1.875,0,0,0,18.125,2.5H13.75V1.875A1.875,1.875,0,0,0,11.875,0Zm0,1.25h3.75a.625.625,0,0,1,.625.625V2.5h-5V1.875a.625.625,0,0,1,.625-.625Zm2.358,8.642,8.267-2.2v6.686a.625.625,0,0,1-.625.625H1.875a.625.625,0,0,1-.625-.625V7.688l8.267,2.2a1.875,1.875,0,0,0,.965,0ZM1.875,3.75h16.25a.625.625,0,0,1,.625.625V6.4l-8.589,2.29a.625.625,0,0,1-.322,0L1.25,6.4V4.375a.625.625,0,0,1,.625-.625Z" fill="#3f8cff"/>
  </g>
</svg>
