<svg xmlns="http://www.w3.org/2000/svg" width="16.667" height="16.667" viewBox="0 0 16.667 16.667">
  <path id="Vector" d="M8.333,16.667H12.5V15H8.333A6.752,6.752,0,0,1,1.667,8.333,6.752,6.752,0,0,1,8.333,1.667,6.752,6.752,0,0,1,15,8.333V9.525a1.347,1.347,0,0,1-1.25,1.308A1.347,1.347,0,0,1,12.5,9.525V8.333a4.168,4.168,0,1,0-1.217,2.942A3.086,3.086,0,0,0,13.75,12.5a2.927,2.927,0,0,0,2.917-2.975V8.333a8.333,8.333,0,1,0-8.333,8.333Zm0-5.833a2.5,2.5,0,1,1,2.5-2.5A2.5,2.5,0,0,1,8.333,10.833Z" fill="#3f8cff"/>
</svg>
