<svg xmlns="http://www.w3.org/2000/svg" xmlns:xlink="http://www.w3.org/1999/xlink" width="1024" height="1024" viewBox="0 0 1024 1024">
  <defs>
    <linearGradient id="linear-gradient" x1="0.5" x2="0.5" y2="1" gradientUnits="objectBoundingBox">
      <stop offset="0" stop-color="#6c5dd3"/>
      <stop offset="1" stop-color="#584e9e"/>
    </linearGradient>
    <clipPath id="clip-path">
      <rect id="Rectangle_4" data-name="Rectangle 4" width="1024" height="1024" fill="none"/>
    </clipPath>
  </defs>
  <g id="Group_10127" data-name="Group 10127" transform="translate(-109 1)">
    <g id="Group_10087" data-name="Group 10087" transform="translate(109 -1)">
      <rect id="Rectangle_3823" data-name="Rectangle 3823" width="1024" height="1024" rx="64" fill="url(#linear-gradient)"/>
      <g id="Group_10086" data-name="Group 10086">
        <g id="Group_14" data-name="Group 14">
          <g id="Group_13" data-name="Group 13" clip-path="url(#clip-path)">
            <path id="Path_9" data-name="Path 9" d="M278.259,715.592a10.485,10.485,0,0,1-6.171-10.537l8.368-90.73c-74.62-9.106-168.7-44.383-220.466-118.265C17,434.708,7.79,355.609,32.642,260.962,65.029,137.639,168.306,47.938,302.166,26.864,435.428,5.883,563.575,58.036,628.63,159.733c68.085,106.437,77.257,219.129,25.16,309.2-46.038,79.594-133.056,128.325-221.747,124.155q-22.846-1.066-40.007-9.172Q383.761,595.9,374.907,608.1c-44.626,61.484-84.3,104.6-84.69,105.025a10.464,10.464,0,0,1-11.958,2.468m83.624-157.309c-26.394-38.483-23.318-107.419,9.144-204.89,27.741-83.306,72.516-133.57,108.784-122.21,12.772,3.992,51.573,26.88,14.473,153.719-15.82,54.1-46.141,114.973-90.309,181.413,8.265,3.394,17.914,5.329,29.05,5.853,80.95,3.843,160.469-40.83,202.627-113.721,48.039-83.063,39.044-187.817-24.674-287.42C550.4,76.333,430.472,27.874,305.429,47.555,179.9,67.32,83.149,151.131,52.912,266.282,29.7,354.693,37.85,427.958,77.147,484.037c64.681,92.3,190.987,108.279,215.651,110.542a10.468,10.468,0,0,1,9.471,11.4l-6.348,68.758c18.971-22.411,48.4-58.819,78.472-102.314a75.587,75.587,0,0,1-12.51-14.137M390.9,360.013c-29.854,89.636-33.911,154.1-11.743,186.424a55.008,55.008,0,0,0,7.115,8.443c35.669-53.7,70.432-116.142,87.9-175.85,25.095-85.821,13.379-123.472-.617-127.848a12.974,12.974,0,0,0-3.88-.561c-18.933,0-54.079,35.23-78.771,109.392" transform="translate(158.887 186.01)" fill="#f4f4f4"/>
            <path id="Path_10" data-name="Path 10" d="M48.57,267.269c26.553,0,68.094-53.546,84.933-76.892a10.474,10.474,0,1,0-16.988-12.257c-25.758,35.679-57.2,67.533-67.14,68.206-8.1-15.8,18.643-110.037,48.067-188.3a10.474,10.474,0,1,0-19.606-7.377C62.707,90.887,14.6,224.607,30.768,255.947c3.469,6.741,9.294,10.743,16.39,11.276.467.028.944.047,1.412.047" transform="translate(229.538 366.146)" fill="#f4f4f4"/>
            <path id="Path_11" data-name="Path 11" d="M94.589,94.859a66.127,66.127,0,0,0,16.717-2.113c26.965-7,39.643-29.124,40.176-30.069a10.479,10.479,0,0,0-18.251-10.3c-.2.355-9.294,15.567-27.47,20.167C90.887,76.291,73.608,72.214,54.4,60.405A10.477,10.477,0,1,0,43.427,78.254C61.4,89.305,78.536,94.859,94.589,94.859" transform="translate(320.922 393.075)" fill="#f4f4f4"/>
            <path id="Path_12" data-name="Path 12" d="M57.1,94.986a37.871,37.871,0,0,0,9.481-1.206c21.392-5.5,31.331-28.283,31.742-29.246a10.48,10.48,0,0,0-19.26-8.265C77.31,60.261,70.7,71.135,61.275,73.51c-6.807,1.711-14.829-1.019-23.889-8.116A10.48,10.48,0,0,0,24.465,81.9C35.6,90.6,46.531,94.986,57.1,94.986" transform="translate(170.738 417.014)" fill="#f4f4f4"/>
            <path id="Path_13" data-name="Path 13" d="M63.127,137.075c17.016,0,31-4.609,41.765-13.8,21.317-18.2,20.784-47.263,20.747-48.5a10.35,10.35,0,0,0-10.752-10.191A10.486,10.486,0,0,0,104.7,75.3c.009.439.1,20.607-13.529,32.144-9.9,8.368-25.188,10.705-45.421,6.928a10.48,10.48,0,0,0-3.833,20.607,116.77,116.77,0,0,0,21.214,2.094" transform="translate(278.446 539.246)" fill="#f4f4f4"/>
          </g>
        </g>
      </g>
    </g>
  </g>
</svg>
