<svg id="ui_icon_bell" data-name="ui icon/bell" xmlns="http://www.w3.org/2000/svg" width="24" height="24" viewBox="0 0 24 24">
  <rect id="bound" width="24" height="24" fill="none"/>
  <g id="bell" transform="translate(2 1)">
    <path id="Path" d="M17,10V7A7,7,0,0,0,3,7v3c0,3.3-3,4.1-3,6,0,1.7,3.9,3,10,3s10-1.3,10-3C20,14.1,17,13.3,17,10Z" transform="translate(0 0)" fill="none" stroke="#081735" stroke-linecap="round" stroke-linejoin="round" stroke-width="2"/>
    <path id="Path-2" data-name="Path" d="M2.855.1C1.844.1.894.066,0,0A2.992,2.992,0,0,0,2.855,2.1,2.992,2.992,0,0,0,5.71,0C4.816.066,3.866.1,2.855.1Z" transform="translate(7.145 20.9)" fill="#081735"/>
  </g>
</svg>
