<svg xmlns="http://www.w3.org/2000/svg" width="20" height="20" viewBox="0 0 20 20">
  <g id="Group_40" data-name="Group 40" transform="translate(-42 -214)">
    <g id="vuesax_outline_user-octagon" data-name="vuesax/outline/user-octagon" transform="translate(-578 26)">
      <g id="user-octagon" transform="translate(620 188)">
        <path id="Vector" d="M8.2,17.921a3.231,3.231,0,0,1-1.625-.433l-4.95-2.858A3.272,3.272,0,0,1,0,11.812v-5.7A3.272,3.272,0,0,1,1.625,3.3L6.575.437a3.237,3.237,0,0,1,3.25,0L14.775,3.3A3.272,3.272,0,0,1,16.4,6.112v5.7a3.272,3.272,0,0,1-1.625,2.817l-4.95,2.858A3.231,3.231,0,0,1,8.2,17.921Zm0-16.667a2.043,2.043,0,0,0-1,.267L2.25,4.379a2.005,2.005,0,0,0-1,1.733v5.7a2.016,2.016,0,0,0,1,1.733L7.2,16.4a2,2,0,0,0,2,0l4.95-2.858a2.005,2.005,0,0,0,1-1.733v-5.7a2.016,2.016,0,0,0-1-1.733L9.2,1.521A2.043,2.043,0,0,0,8.2,1.254Z" transform="translate(1.8 1.037)" fill="#8f95b2"/>
        <path id="Vector-2" data-name="Vector" d="M2.567,5.133A2.567,2.567,0,1,1,5.133,2.567,2.568,2.568,0,0,1,2.567,5.133Zm0-3.883A1.317,1.317,0,1,0,3.883,2.567,1.319,1.319,0,0,0,2.567,1.25Z" transform="translate(7.433 4.658)" fill="#8f95b2"/>
        <path id="Vector-3" data-name="Vector" d="M7.292,3.967a.63.63,0,0,1-.625-.625c0-1.15-1.217-2.092-2.708-2.092S1.25,2.192,1.25,3.342a.63.63,0,0,1-.625.625A.63.63,0,0,1,0,3.342C0,1.5,1.775,0,3.958,0S7.917,1.5,7.917,3.342A.63.63,0,0,1,7.292,3.967Z" transform="translate(6.042 10.542)" fill="#8f95b2"/>
        <path id="Vector-4" data-name="Vector" d="M0,0H20V20H0Z" fill="none" opacity="0"/>
      </g>
    </g>
  </g>
</svg>
